<?xml version="1.0" encoding="UTF-8"?>
<svg width="198px" height="48px" viewBox="0 0 198 48" version="1.1" xmlns="http://www.w3.org/2000/svg" xmlns:xlink="http://www.w3.org/1999/xlink">
    <!-- Generator: Sketch 42 (36781) - http://www.bohemiancoding.com/sketch -->
    <title>TypeTreatment</title>
    <desc>Created with Sketch.</desc>
    <defs></defs>
    <g id="Symbols" stroke="none" stroke-width="1" fill="none" fill-rule="evenodd">
        <g id="Header" transform="translate(-58.000000, -83.000000)">
            <g id="TypeTreatment" transform="translate(58.000000, 83.000000)">
                <g id="Layer_1">
                    <path d="M0.337714286,46.2390087 L0.337714286,44.0418609 L2.53040994,44.0418609 L3.26090062,44.0418609 L9.50249689,44.0418609 C12.6691801,44.0418609 15.0845714,43.0867391 16.7486708,41.1728174 C18.2512547,39.3005826 18.9915342,36.5516957 18.9707329,32.9286087 L18.9707329,13.5417217 C18.9707329,9.91986087 18.2304534,7.1722 16.7486708,5.29873913 C15.1249503,3.38481739 12.709559,2.41743478 9.50249689,2.39781739 L3.26090062,2.39781739 L2.53040994,2.39781739 L0.337714286,2.39781739 L0.337714286,0.201895652 L9.50249689,0.201895652 C13.4608509,0.201895652 16.434205,1.45250435 18.4237826,3.95494783 C20.2506211,6.17171304 21.1646522,9.37547826 21.1646522,13.5650174 L21.1646522,32.9384174 C21.1646522,37.1488 20.2506211,40.3513391 18.4237826,42.548487 C16.434205,45.0092435 13.4608509,46.2402348 9.50249689,46.2402348 L0.337714286,46.2390087 L0.337714286,46.2390087 Z M0.337714286,42.5472609 L0.337714286,3.8629913 L2.53040994,3.8629913 L2.53040994,42.548487 L0.337714286,42.5472609 L0.337714286,42.5472609 Z M4.02198137,42.5472609 L4.02198137,3.8629913 L9.50249689,3.8629913 C12.3241242,3.8629913 14.3442919,4.65626957 15.5617764,6.24282609 C16.840441,7.78892174 17.4791615,10.2288348 17.4791615,13.5650174 L17.4791615,32.9384174 C17.4791615,36.2341391 16.840441,38.6642435 15.5617764,40.2287304 C14.3234907,41.7760522 12.303323,42.548487 9.50249689,42.548487 L4.02198137,42.5472609 L4.02198137,42.5472609 Z M6.21467702,40.350113 L9.5037205,40.350113 C10.2537888,40.350113 10.9757143,40.2888087 11.6658261,40.1674261 C12.3559379,40.0460435 12.9603975,39.7358435 13.4767578,39.2368261 C13.9943416,38.7390348 14.4152609,37.9911217 14.7407391,36.9955391 C15.0649938,35.9987304 15.2277329,34.6463565 15.2277329,32.9371913 L15.2277329,13.5650174 C15.2277329,11.8558522 15.0649938,10.5047043 14.7407391,9.50666957 C14.4152609,8.51108696 13.9955652,7.75704348 13.4767578,7.24944348 C12.9591739,6.74061739 12.3547143,6.42551304 11.6658261,6.30413043 C10.9769379,6.18274783 10.2550124,6.12144348 9.5037205,6.12144348 L6.21467702,6.12144348 L6.21467702,40.350113 Z" id="Shape" fill="#FFFFFF" fill-rule="nonzero"></path>
                    <path d="M30.1042919,46.2390087 L40.7900124,0.201895652 L41.274559,0.201895652 L42.9998385,0.201895652 L43.1515652,0.201895652 L44.8768447,0.201895652 L45.4213478,0.201895652 L56.0764783,46.2390087 L53.8238261,46.2390087 L43.7768261,2.82572174 L42.4051677,2.82572174 L32.3581677,46.2390087 L30.1042919,46.2390087 Z M33.8497391,46.2390087 L37.3357826,31.1679478 L48.8303043,31.1679478 L52.3322547,46.2390087 L50.0796025,46.2390087 L47.089118,33.4251739 L39.113677,33.4251739 L36.164795,46.2390087 L33.8497391,46.2390087 Z M37.6734969,29.704 L43.0683602,6.37769565 L48.4876957,29.704 L37.6734969,29.704 Z M40.4755466,27.5068522 L45.7064472,27.5068522 L43.0732547,16.2244 L40.4755466,27.5068522 Z" id="Shape" fill="#FFFFFF" fill-rule="nonzero"></path>
                    <path d="M64.9586087,46.1176261 L64.9586087,0.0805130435 L65.5679627,0.0805130435 L67.1513043,0.0805130435 L67.5171615,0.0805130435 L69.1310932,0.0805130435 L69.8921739,0.0805130435 L81.0967019,27.9224957 L81.0967019,0.0805130435 L83.349354,0.0805130435 L83.349354,39.3716957 L68.460559,2.27643478 L67.1513043,2.27643478 L67.1513043,46.1176261 L64.9586087,46.1176261 L64.9586087,46.1176261 Z M68.6428758,46.1176261 L68.6428758,6.79456522 L83.5316708,43.8591739 L84.7797453,43.8591739 L84.7797453,0.0805130435 L87.0323975,0.0805130435 L87.0323975,46.1176261 L86.3324969,46.1176261 L84.7797453,46.1176261 L84.4750683,46.1176261 L82.8011801,46.1176261 L82.0400994,46.1176261 L70.8355714,18.2143391 L70.8355714,46.1176261 L68.6428758,46.1176261 L68.6428758,46.1176261 Z" id="Shape" fill="#FFFFFF" fill-rule="nonzero"></path>
                    <path d="M98.9307081,34.005113 L98.9307081,0.201895652 L101.123404,0.201895652 L101.123404,34.005113 C101.123404,37.2996087 101.803727,39.7701739 103.163149,41.4180348 C104.543373,43.1676609 106.562317,44.0418609 109.222429,44.0418609 C111.921696,44.0418609 113.94064,43.1676609 115.280484,41.4180348 C116.660708,39.7517826 117.341031,37.2799913 117.321453,34.005113 L117.321453,0.201895652 L119.512925,0.201895652 L119.512925,34.005113 C119.512925,37.8280522 118.679652,40.7571739 117.016776,42.7912522 C116.386621,43.6249913 115.449342,44.4072348 114.200043,45.1404348 C112.950745,45.8724087 111.292764,46.2390087 109.222429,46.2390087 C107.152093,46.2390087 105.492888,45.8724087 104.244814,45.1404348 C102.995516,44.4072348 102.057012,43.6249913 101.428081,42.7912522 C99.7627578,40.7571739 98.9307081,37.8292783 98.9307081,34.005113 Z M102.613752,34.005113 L102.613752,0.201895652 L104.806447,0.201895652 L104.806447,34.005113 C104.806447,35.5904435 104.959398,36.8165304 105.264075,37.6809217 C105.567528,38.545313 105.949292,39.1755217 106.405696,39.5727739 C106.862099,39.9688 107.339304,40.1980783 107.837311,40.2593826 C108.334093,40.320687 108.790497,40.350113 109.206522,40.350113 C109.622547,40.350113 110.085068,40.320687 110.592863,40.2593826 C111.099435,40.1980783 111.582758,39.9700261 112.039161,39.5727739 C112.495565,39.1755217 112.877329,38.5404087 113.180783,37.6649826 C113.48546,36.7907826 113.63841,35.5708261 113.63841,34.005113 L113.63841,0.201895652 L115.829882,0.201895652 L115.829882,34.005113 C115.829882,36.9538522 115.271919,39.1399652 114.155994,40.5646783 C113.119602,41.9072435 111.476304,42.5681043 109.223652,42.5472609 C107.010155,42.5472609 105.366857,41.8864 104.291311,40.5646783 C103.171714,39.1411913 102.613752,36.9550783 102.613752,34.005113 Z" id="Shape" fill="#FFFFFF" fill-rule="nonzero"></path>
                    <path d="M130.405435,46.2390087 L141.244106,23.2351652 L130.587752,0.201895652 L133.023944,0.201895652 L143.801435,23.1738609 L132.963988,46.2390087 L130.405435,46.2390087 Z M134.576696,46.2390087 L144.623696,24.9443304 L154.671919,46.2390087 L152.113366,46.2390087 L144.562516,30.1306783 L136.950484,46.2390087 L134.576696,46.2390087 Z M134.637876,0.201895652 L137.134025,0.201895652 L144.562516,16.3102261 L152.174547,0.201895652 L154.671919,0.201895652 L144.623696,21.4352696 L134.637876,0.201895652 Z M145.445957,23.175087 L156.284627,0.203121739 L158.72082,0.203121739 L147.789155,23.2363913 L158.59846,46.2402348 L156.283404,46.2402348 L145.445957,23.175087 Z" id="Shape" fill="#FFFFFF" fill-rule="nonzero"></path>
                    <ellipse id="Oval" stroke="#FFFFFF" stroke-width="2" cx="182.168714" cy="32.5693652" rx="14.3210435" ry="14.3501217"></ellipse>
                    <g id="Group" transform="translate(174.772278, 25.952174)" fill-rule="nonzero" fill="#FFFFFF">
                        <path d="M3.46622492,12.7549826 L1.75807585,6.83053043 L1.75807585,12.7549826 L0.184523059,12.7549826 L0.184523059,0.387443478 L1.57453548,0.387443478 L4.07068455,9.09756522 L6.54847958,0.387443478 L7.938492,0.387443478 L7.938492,12.7549826 L6.36493921,12.7549826 L6.36493921,6.83053043 L4.65679014,12.7549826 C4.65679014,12.7549826 3.46622492,12.7549826 3.46622492,12.7549826 Z" id="Shape"></path>
                        <polygon id="Shape" points="14.3012249 0.404608696 14.3012249 1.98258261 10.7662373 1.98258261 10.7662373 5.79203478 14.3012249 5.79203478 14.3012249 7.3700087 10.7662373 7.3700087 10.7662373 11.1966261 14.3012249 11.1966261 14.3012249 12.7746 9.19268455 12.7746 9.19268455 0.404608696"></polygon>
                    </g>
                </g>
            </g>
        </g>
    </g>
</svg>