<?xml version="1.0" encoding="UTF-8"?>
<svg width="569px" height="88px" viewBox="0 0 569 88" version="1.1" xmlns="http://www.w3.org/2000/svg" xmlns:xlink="http://www.w3.org/1999/xlink">
    <!-- Generator: Sketch 42 (36781) - http://www.bohemiancoding.com/sketch -->
    <title>ChameleonTypeTreatment-04</title>
    <desc>Created with Sketch.</desc>
    <defs>
        <filter x="-50%" y="-50%" width="200%" height="200%" filterUnits="objectBoundingBox" id="filter-1">
            <feOffset dx="0" dy="0" in="SourceAlpha" result="shadowOffsetOuter1"></feOffset>
            <feGaussianBlur stdDeviation="5" in="shadowOffsetOuter1" result="shadowBlurOuter1"></feGaussianBlur>
            <feColorMatrix values="0 0 0 0 0   0 0 0 0 0   0 0 0 0 0  0 0 0 0.5 0" type="matrix" in="shadowBlurOuter1" result="shadowMatrixOuter1"></feColorMatrix>
            <feMerge>
                <feMergeNode in="shadowMatrixOuter1"></feMergeNode>
                <feMergeNode in="SourceGraphic"></feMergeNode>
            </feMerge>
        </filter>
    </defs>
    <g id="Main" stroke="none" stroke-width="1" fill="none" fill-rule="evenodd">
        <g id="Client-Page---Chameleon" transform="translate(-233.000000, -414.000000)" fill-rule="nonzero" fill="#FFFFFF">
            <g id="ChameleonTypeTreatment-04" filter="url(#filter-1)" transform="translate(243.000000, 423.000000)">
                <g id="Layer_1">
                    <g id="Group">
                        <path d="M0.303601719,35.1897778 L0.303601719,35 C0.303601719,16.1412222 14.6782779,0.695333333 35.2830817,0.695333333 C47.9328911,0.695333333 55.5032708,4.865 61.7326117,10.9301111 L52.3414083,21.6385556 C47.166808,16.9952222 41.8962507,14.1524444 35.1871246,14.1524444 C23.8791404,14.1524444 15.7338052,23.4391111 15.7338052,34.8117778 L15.7338052,35 C15.7338052,46.3718889 23.6872264,55.8483333 35.1871246,55.8483333 C42.8534613,55.8483333 47.5498496,52.8157778 52.8204069,48.0775556 L62.2116103,57.4591111 C55.3121433,64.7562222 47.6450201,69.3046667 34.7073395,69.3046667 C14.966149,69.3046667 0.303601719,54.2375556 0.303601719,35.1897778 Z" id="Shape"></path>
                        <polygon id="Shape" points="62.5002679 1.83166667 77.2587722 1.83166667 77.2587722 28.0816667 104.475172 28.0816667 104.475172 1.83166667 119.233676 1.83166667 119.233676 68.1675556 104.475172 68.1675556 104.475172 41.5387778 77.2587722 41.5387778 77.2587722 68.1675556 62.5002679 68.1675556"></polygon>
                        <path d="M146.833904,1.358 L160.442497,1.358 L189.19185,68.1675556 L173.763219,68.1675556 L167.629835,53.2894444 L139.263524,53.2894444 L133.13014,68.1675556 L118.083765,68.1675556 L146.833904,1.358 Z M162.358491,40.4016667 L153.446287,18.8898889 L144.534082,40.4016667 L162.358491,40.4016667 Z" id="Shape"></path>
                        <polygon id="Shape" points="188.043511 1.83166667 203.951927 1.83166667 221.585209 29.8822222 239.218491 1.83166667 255.126907 1.83166667 255.126907 68.1675556 240.46436 68.1675556 240.46436 24.8601111 221.585209 53.1953333 221.202168 53.1953333 202.514931 25.1447778 202.514931 68.1683333 188.044298 68.1683333 188.044298 1.83166667"></polygon>
                        <polygon id="Shape" points="259.727338 1.83166667 310.327362 1.83166667 310.327362 14.8143333 274.389885 14.8143333 274.389885 28.2706667 306.014802 28.2706667 306.014802 41.2533333 274.389885 41.2533333 274.389885 55.1841111 310.806361 55.1841111 310.806361 68.1667778 259.728125 68.1667778 259.728125 1.83166667"></polygon>
                        <polygon id="Shape" points="314.352838 1.83166667 329.111342 1.83166667 329.111342 54.9002222 362.556297 54.9002222 362.556297 68.1675556 314.352838 68.1675556 314.352838 1.83166667"></polygon>
                        <polygon id="Shape" points="366.006817 1.83166667 416.606841 1.83166667 416.606841 14.8143333 380.669364 14.8143333 380.669364 28.2706667 412.294281 28.2706667 412.294281 41.2533333 380.669364 41.2533333 380.669364 55.1841111 417.08584 55.1841111 417.08584 68.1667778 366.007603 68.1667778 366.007603 1.83166667"></polygon>
                        <path d="M415.746374,35.1897778 L415.746374,35 C415.746374,16.1412222 430.791963,0.695333333 451.49115,0.695333333 C472.191125,0.695333333 487.044799,15.9522222 487.044799,34.811 L487.044799,35 C487.044799,53.8587778 471.999211,69.3046667 451.300023,69.3046667 C430.599262,69.3046667 415.746374,54.0477778 415.746374,35.1897778 Z M471.616169,35.1897778 L471.616169,35 C471.616169,23.6281111 463.182963,14.1516667 451.300023,14.1516667 C439.417083,14.1516667 431.175004,23.4383333 431.175004,34.811 L431.175004,35 C431.175004,46.3718889 439.608211,55.8483333 451.49115,55.8483333 C463.37409,55.8483333 471.616169,46.5616667 471.616169,35.1897778 Z" id="Shape"></path>
                        <polygon id="Shape" points="488.675282 1.83166667 502.283875 1.83166667 533.716878 42.6758889 533.716878 1.83166667 548.284255 1.83166667 548.284255 68.1675556 535.729616 68.1675556 503.242659 25.9972222 503.242659 68.1675556 488.675282 68.1675556"></polygon>
                    </g>
                </g>
            </g>
        </g>
    </g>
</svg>