<?xml version="1.0" encoding="UTF-8"?>
<svg width="463px" height="119px" viewBox="0 0 463 119" version="1.1" xmlns="http://www.w3.org/2000/svg" xmlns:xlink="http://www.w3.org/1999/xlink">
    <!-- Generator: Sketch 42 (36781) - http://www.bohemiancoding.com/sketch -->
    <title>Coach.eps-02</title>
    <desc>Created with Sketch.</desc>
    <defs>
        <filter x="-50%" y="-50%" width="200%" height="200%" filterUnits="objectBoundingBox" id="filter-1">
            <feOffset dx="0" dy="0" in="SourceAlpha" result="shadowOffsetOuter1"></feOffset>
            <feGaussianBlur stdDeviation="5.5" in="shadowOffsetOuter1" result="shadowBlurOuter1"></feGaussianBlur>
            <feColorMatrix values="0 0 0 0 0   0 0 0 0 0   0 0 0 0 0  0 0 0 0.956493433 0" type="matrix" in="shadowBlurOuter1" result="shadowMatrixOuter1"></feColorMatrix>
            <feMerge>
                <feMergeNode in="shadowMatrixOuter1"></feMergeNode>
                <feMergeNode in="SourceGraphic"></feMergeNode>
            </feMerge>
        </filter>
    </defs>
    <g id="Main" stroke="none" stroke-width="1" fill="none" fill-rule="evenodd">
        <g id="Client-Page---Coach" transform="translate(-293.000000, -398.000000)" fill-rule="nonzero" fill="#FFFFFF">
            <g id="Coach.eps-02" filter="url(#filter-1)" transform="translate(303.000000, 409.000000)">
                <g id="Layer_1">
                    <g id="Group">
                        <path d="M439.600968,20.7243316 C438.250392,20.3478465 437.236205,20.0615609 436.342516,19.7752753 C435.393599,19.4713419 434.472295,19.1419174 433.299955,18.6791544 C430.197146,17.4516559 427.300187,15.8123768 424.875176,13.9358335 C424.380634,13.5515049 423.926258,13.1769806 423.519579,12.8220649 C423.10788,12.4593058 422.69618,12.0710555 422.294522,11.6651574 L422.266908,11.6200576 L422.256866,11.6102533 L422.246825,11.6161359 C420.878677,10.225886 419.688765,8.65915871 418.719764,6.98262323 C418.559101,6.70614194 418.378355,6.36887398 418.185057,5.99042796 C417.961635,5.55315613 417.79093,5.20412301 417.682984,4.9629372 L417.682984,4.95117204 L417.675453,4.93548516 L417.672943,4.93744602 C417.484666,4.51586108 417.346596,4.19035828 417.218567,3.82956 L417.218567,3.81779484 C417.085518,3.44915312 416.957489,3.05305935 416.789295,2.49029247 L416.126559,0.286285591 L413.239641,0.286285591 L30.4694577,0.286285591 L27.5875604,0.286285591 L26.9198037,2.49029247 C26.7114435,3.18051527 26.5733735,3.62563054 26.4779797,3.89622925 L26.472959,3.89426839 C26.3700341,4.18055398 26.2369848,4.49821333 26.0361558,4.95705462 C25.3131711,6.59633376 24.2186526,8.35326452 22.9634708,9.91803097 C22.7049034,10.239612 22.4488463,10.5435454 22.2028307,10.8200267 C22.0471882,10.9965041 21.7936415,11.2671028 21.4572528,11.6082925 C21.4572528,11.6082925 21.4547424,11.6063316 21.4547424,11.6082925 L21.4472113,11.6200576 C21.4396802,11.6259402 21.4321491,11.6318228 21.4271284,11.6396662 L21.3643693,11.7043746 L21.3091413,11.7769265 C19.3510578,13.7338649 16.7829559,15.5653084 13.9261623,17.0692882 L13.931183,17.0751708 C13.343758,17.3830258 12.7663744,17.6673505 12.2140944,17.9222624 L12.1965219,17.9222624 C11.6065864,18.1948219 11.0266925,18.4438512 10.464371,18.6673892 L10.4618607,18.6615067 L10.4467985,18.6673892 L10.4317363,18.6791544 C9.2845002,19.1321131 8.39834189,19.4497725 7.40674832,19.7360581 C6.42017546,20.0203828 5.24783572,20.2929424 3.52572636,20.6576624 L0.832106341,21.2302335 L0.832106341,23.4087492 L0.832106341,73.6538314 L0.832106341,75.8303862 L3.52572636,76.4049183 C5.27042899,76.7755209 6.45783092,77.053963 7.44440377,77.3363269 C8.44352844,77.6226125 9.31462457,77.9343892 10.429226,78.3716611 C13.434131,79.5560206 16.3888289,81.2423604 18.8364333,83.1365514 C19.3359956,83.5248017 19.7953921,83.899326 20.1995606,84.2562026 C20.6112603,84.6189617 21.0179391,85.0032903 21.4145766,85.4033058 L21.4421906,85.4484056 L21.452232,85.4582099 L21.4622735,85.4523273 C22.7902558,86.8072817 24.0755619,88.5093084 25.057114,90.1799613 C25.2278187,90.4701686 25.4060545,90.7917497 25.5893111,91.1466654 C25.7148292,91.389812 25.85792,91.6859019 26.0135625,92.0427785 L26.0210936,92.0565045 L26.0210936,92.0584654 L26.0286247,92.0761131 L26.0361558,92.0918 C26.2420056,92.5584847 26.3750548,92.8741832 26.4654279,93.1251733 C26.5407388,93.340868 26.6863399,93.8095135 26.9223141,94.5820925 L27.5900708,96.7762951 L30.4744784,96.7762951 L413.244662,96.7762951 L416.1366,96.7762951 L416.794316,94.5722882 C416.980082,93.9487346 417.110621,93.536954 417.231119,93.2055686 C417.364168,92.8388877 417.497217,92.5173067 417.680474,92.1035652 C418.441114,90.3936951 419.500487,88.6857858 420.753159,87.1327845 C420.941436,86.8994422 421.192472,86.607274 421.506268,86.2543191 C421.807511,85.9170512 422.061058,85.6425308 422.254356,85.4444839 L422.259377,85.4464447 L422.271929,85.4327187 L422.286991,85.4111492 C424.272688,83.3973458 426.91108,81.5051157 429.823102,79.971723 C430.413037,79.6619071 430.990421,79.3756215 431.545211,79.1207097 C432.130126,78.8520718 432.70751,78.6030426 433.269831,78.3795045 L433.272341,78.3853871 L433.287404,78.3795045 L433.302466,78.3677394 C434.439661,77.9206632 435.348412,77.5971213 436.304861,77.293188 C437.19604,77.0108241 438.230309,76.7186559 439.605989,76.3343273 L442.028489,75.6578305 L442.028489,73.6499097 L442.028489,23.4087492 L442.028489,21.4008284 L439.600968,20.7243316 Z M434.723332,71.6596366 C434.334225,71.7753273 433.95265,71.8929789 433.561033,72.0165131 C432.494129,72.3557419 431.429735,72.7361488 430.033973,73.2851897 L430.031462,73.281268 L430.0164,73.2871505 L430.001338,73.2989157 C429.25576,73.5930447 428.530265,73.9028606 427.832384,74.2224809 C427.099358,74.5597488 426.398966,74.9048602 425.741251,75.2519325 C422.229253,77.1010237 419.013477,79.4187604 416.540769,81.9188572 L416.535748,81.9168963 L416.523196,81.9306224 L416.508134,81.9521918 C416.106476,82.3580899 415.772598,82.7110447 415.51152,83.0051738 C415.252952,83.2953811 414.939157,83.6679445 414.587706,84.1052163 C413.048853,86.0131333 411.743464,88.1190972 410.804588,90.2329045 C410.661498,90.5505639 410.546021,90.8211626 410.443096,91.0760744 L33.2860855,91.0760744 C33.1680984,90.7701802 33.0576424,90.5152684 32.937145,90.2427088 L32.9296139,90.2270219 C32.7890335,89.9054409 32.5907148,89.4995428 32.3472096,89.0308972 C32.1589323,88.6661772 31.9279789,88.2563574 31.6719218,87.8171247 C30.4569059,85.7464563 28.8477629,83.6287273 27.1833919,81.9384658 L27.1557779,81.893366 L27.1457364,81.8835617 L27.1382053,81.8894443 C26.6863399,81.4325639 26.1842672,80.9658791 25.6495598,80.491351 C25.0897487,79.9991751 24.5274273,79.5344512 23.972637,79.1030619 C20.9903251,76.7951295 17.3854432,74.7381871 13.7127814,73.2910723 C12.3044675,72.7361488 11.2049283,72.3459376 9.95727762,71.9871002 C9.38240438,71.822388 8.7899586,71.6635583 8.13224336,71.5047286 L8.13224336,25.5558912 C8.77238605,25.4009832 9.35228002,25.2441144 9.9171118,25.081363 C11.1647625,24.7205647 12.2718328,24.3264318 13.6952089,23.7636649 L27.2335991,15.0947019 L27.2361095,15.0927411 C27.474594,14.8476335 27.7908998,14.5025222 28.1900476,14.0515243 C28.5189052,13.6809217 28.8301903,13.3103191 29.1213925,12.9495209 C30.6903697,10.9965041 32.0484763,8.82191011 32.9346346,6.80810667 C33.0576424,6.52770366 33.1706088,6.27083097 33.2810648,5.9884671 L410.445606,5.9884671 C410.548531,6.2394572 410.661498,6.50613419 410.802078,6.81987183 L410.802078,6.83163699 L410.809609,6.84732387 L410.81463,6.84536301 C411.045583,7.36499097 411.238881,7.77481075 411.397034,8.08462667 C411.587822,8.45522925 411.811244,8.86700989 412.074832,9.32192946 C413.272276,11.3984804 414.773473,13.3632624 416.523196,15.1319583 L416.553321,15.1770581 L416.563362,15.1868624 L416.573404,15.1809798 C417.0328,15.6457037 417.534873,16.1143492 418.072091,16.5888774 C418.629391,17.0810533 419.189202,17.5438163 419.741482,17.9712839 C422.703711,20.2654903 426.240813,22.2675286 430.01891,23.7617041 C431.449818,24.3283927 432.531784,24.716643 433.60622,25.0597935 C433.980264,25.179406 434.354308,25.2950968 434.725842,25.4068658 L434.725842,71.6596366 L434.723332,71.6596366 Z" id="Shape"></path>
                        <polygon id="Shape" points="391.96431 60.6494065 391.96431 35.4503918 399.030984 35.4503918 399.14395 33.0973596 368.803697 33.0973596 368.771062 35.4503918 375.129813 35.4503918 375.129813 46.1174714 351.344119 46.1174714 351.344119 35.4503918 358.172307 35.4503918 358.222515 33.0973596 327.786868 33.0973596 327.676412 35.4503918 334.389124 35.4503918 334.389124 60.6494065 327.555914 60.6494065 327.588549 63.2024465 358.114569 63.2024465 358.05432 60.6494065 351.344119 60.6494065 351.344119 48.7862022 375.245289 48.7862022 375.245289 60.6494065 368.535088 60.6494065 368.565212 63.2024465 399.294572 63.2024465 399.264447 60.6494065"></polygon>
                        <path d="M176.936615,37.5426297 C169.131895,34.1503415 158.696314,32.2816417 147.567873,32.2816417 C137.021836,32.2816417 126.526006,34.2856409 119.077758,37.7171462 C113.788422,40.1544955 110.545032,44.299754 110.545032,48.6116856 C110.545032,53.262846 113.713111,56.7394512 120.453437,59.4846555 C127.959424,62.5416366 136.836069,64.0162034 147.748619,64.0162034 C159.183325,64.0162034 168.757851,62.4828108 176.226183,59.4532817 C182.348959,56.9727935 185.916186,52.870674 185.916186,48.3077523 C185.916186,43.9409166 182.652713,40.0250787 176.936615,37.5426297 Z M160.923007,59.0375794 C157.882957,60.9670658 154.119922,61.7670968 148.843138,61.7670968 C143.393138,61.7670968 139.077824,60.978831 135.922297,59.3611213 C132.01115,57.3571222 129.93508,53.6628615 129.93508,48.7097286 C129.93508,44.1213157 131.687314,40.2917557 134.820247,38.0308839 C138.08372,35.6837342 142.768058,34.8542903 148.700047,34.8542903 C153.911561,34.8542903 158.990027,35.938646 161.791592,37.8798976 C164.74378,39.9289966 166.53869,43.7918912 166.53869,48.0979402 C166.53869,52.8824391 164.565544,56.7218034 160.923007,59.0375794 Z" id="Shape"></path>
                        <path d="M78.8542035,34.6876172 C84.2891405,34.6876172 89.575966,35.8994288 93.0929852,37.944606 C94.8552604,38.9740576 96.4141961,40.3270512 97.6894608,41.9369174 C98.6007227,43.0899032 98.816614,43.4252103 99.6199303,45.0605677 L103.495932,45.0762546 L103.48338,33.2699153 L95.6912115,35.6935385 C92.352428,34.4719226 91.0269561,34.0817114 88.2354319,33.4856099 C84.4648659,32.6836181 80.2173309,32.2796809 75.6032828,32.2796809 C67.233731,32.2796809 42.627148,34.5738873 42.627148,48.5646249 C42.627148,61.7690576 66.9124044,64.0122817 77.1546875,64.0122817 C85.6698404,64.0122817 91.5064355,63.1514641 96.2836572,60.655289 C100.202335,58.608151 102.574628,55.8237295 103.272509,53.3804976 C103.307654,53.2706895 103.332758,53.1079381 103.370413,52.8883217 L99.6199303,52.8745957 C99.5270469,53.5844271 99.1404509,54.708 97.7974064,56.0472675 C95.1765869,58.6650159 89.7065049,61.6278757 80.0817713,61.6278757 C73.9464429,61.6278757 60.8774906,59.8356495 60.8774906,47.974406 C60.8774906,36.1229669 73.1581888,34.6876172 78.8542035,34.6876172 Z" id="Shape"></path>
                        <path d="M252.789759,60.6494065 L222.082992,32.2306594 L194.195364,56.2060972 C193.291634,56.9845587 191.700063,58.1336228 190.587972,59.0042447 C189.757042,59.6532895 189.53613,59.4140645 188.788041,59.8317277 C187.362155,60.6356804 185.567245,60.7513712 184.302022,60.7513712 C183.990737,60.7513712 183.604141,60.712154 183.066923,60.7513712 L182.469457,60.7415669 L182.487029,63.1926422 L205.07779,63.1789161 L204.989927,60.6494065 C199.236174,60.7239191 196.866391,60.4944985 196.866391,58.8101196 C196.866391,57.6159557 200.51646,54.4883837 200.51646,54.4883837 L224.796695,54.511914 L231.248329,60.6513673 L224.889579,60.6513673 L224.892089,63.194603 L260.160186,63.194603 L260.092406,60.6513673 L252.789759,60.6513673 L252.789759,60.6494065 Z M203.122217,52.0373084 L213.399645,43.233046 L222.642803,52.0373084 L203.122217,52.0373084 Z" id="Shape"></path>
                        <path d="M294.923699,35.168028 C300.356126,35.168028 305.647972,36.3837613 309.162481,38.4289385 C310.924756,39.4564292 312.483692,40.8094228 313.758957,42.419289 C314.672729,43.5722748 314.861006,43.8879733 315.664322,45.519409 L319.567938,45.5586262 L319.555386,33.7522869 L311.763218,36.1759101 C308.424434,34.9542942 307.098962,34.564083 304.307438,33.9699424 C300.534362,33.1679505 296.286827,32.7640133 291.675289,32.7640133 C283.308247,32.7640133 258.699154,35.0562589 258.699154,49.0450357 C258.699154,62.2514292 282.984411,64.4926925 293.226694,64.4926925 C301.741847,64.4926925 307.575931,63.6357966 312.355663,61.1396215 C316.274341,59.0944443 318.646634,56.3061011 319.344515,53.8648301 C319.37715,53.7569828 319.404764,53.5922705 319.442419,53.3726542 L315.666833,53.3353978 C315.57897,54.0452292 315.212457,55.1923325 313.871923,56.5316 C311.253614,59.1454267 305.781021,62.1122082 296.156288,62.1122082 C290.020959,62.1122082 276.952007,60.3160602 276.952007,48.4548168 C276.946986,36.6072994 289.230195,35.168028 294.923699,35.168028 Z" id="Shape"></path>
                    </g>
                </g>
            </g>
        </g>
    </g>
</svg>