<?xml version="1.0" encoding="UTF-8"?>
<svg width="741px" height="129px" viewBox="0 0 741 129" version="1.1" xmlns="http://www.w3.org/2000/svg" xmlns:xlink="http://www.w3.org/1999/xlink">
    <!-- Generator: Sketch 42 (36781) - http://www.bohemiancoding.com/sketch -->
    <title>Page 1</title>
    <desc>Created with Sketch.</desc>
    <defs>
        <filter x="-50%" y="-50%" width="200%" height="200%" filterUnits="objectBoundingBox" id="filter-1">
            <feOffset dx="0" dy="-1" in="SourceAlpha" result="shadowOffsetOuter1"></feOffset>
            <feGaussianBlur stdDeviation="11" in="shadowOffsetOuter1" result="shadowBlurOuter1"></feGaussianBlur>
            <feColorMatrix values="0 0 0 0 0   0 0 0 0 0   0 0 0 0 0  0 0 0 0.5 0" type="matrix" in="shadowBlurOuter1" result="shadowMatrixOuter1"></feColorMatrix>
            <feMerge>
                <feMergeNode in="shadowMatrixOuter1"></feMergeNode>
                <feMergeNode in="SourceGraphic"></feMergeNode>
            </feMerge>
        </filter>
        <polygon id="path-2" points="92.8322575 0.298626429 0.000339524385 0.298626429 0.000339524385 86.5886387 92.8322575 86.5886387 92.8322575 0.298626429"></polygon>
    </defs>
    <g id="Main" stroke="none" stroke-width="1" fill="none" fill-rule="evenodd">
        <g id="Client-Page---Kaiser-Permantente" transform="translate(-142.000000, -384.000000)">
            <g id="Page-1" filter="url(#filter-1)" transform="translate(164.000000, 405.000000)">
                <g id="Group-3" transform="translate(0.000000, 0.938874)">
                    <mask id="mask-3" fill="white">
                        <use xlink:href="#path-2"></use>
                    </mask>
                    <g id="Clip-2"></g>
                    <path d="M41.4879105,23.9276141 L47.4624881,64.8840909 L53.4345458,23.9276141 C49.9218671,22.7025598 45.353369,22.5268348 41.4879105,23.9276141 L41.4879105,23.9276141 Z M36.5691523,26.3777226 C33.2303437,29.0035562 30.9473545,32.6787191 31.8267841,36.8785466 L42.0145603,65.2355409 L40.081831,24.2790641 C38.8521415,24.6280037 37.4460621,25.501608 36.5691523,26.3777226 L36.5691523,26.3777226 Z M15.8383004,30.2286105 C22.6897877,42.1302137 29.717665,55.0836566 36.3927625,66.4580848 C34.1097733,56.4819255 31.6503942,39.8558301 28.1351957,35.1288276 C24.0958671,29.5282209 15.8383004,30.2286105 15.8383004,30.2286105 L15.8383004,30.2286105 Z M3.71527509,36.1806673 L31.6503942,68.5592537 L14.4322209,30.4043355 C9.86372274,30.5775501 5.99826426,32.8544441 3.71527509,36.1806673 L3.71527509,36.1806673 Z M62.2212823,44.9317723 L57.6527841,67.1609848 C63.6248419,56.8333755 69.5968996,46.6814912 75.3950874,36.1806673 C69.7758094,36.7053319 64.1514917,38.8039905 62.2212823,44.9317723 L62.2212823,44.9317723 Z M76.9775567,36.1806673 L62.2212823,69.0839184 L88.2211523,40.9051594 C85.2351235,37.7546612 81.369665,36.3538819 76.9775567,36.1806673 L76.9775567,36.1806673 Z M0.0262064982,50.8813187 C9.16068303,57.8827048 18.2976794,65.0598159 27.432156,72.0586916 L2.83584549,37.4057216 C0.552856318,41.2540991 -0.150183394,45.8053766 0.0262064982,50.8813187 L0.0262064982,50.8813187 Z M91.3835711,44.9317723 C90.8569213,43.8799326 90.1538816,42.8306034 89.2769718,41.9569991 L66.7872606,72.4101416 C75.7478671,65.7602055 84.3582137,59.1077591 92.7896505,52.282098 C92.9660404,49.6562644 92.6132606,47.0329412 91.3835711,44.9317723 L91.3835711,44.9317723 Z M0.200076534,65.0598159 L23.9194773,75.9120898 C16.0121704,68.0345891 8.10738339,60.5085384 0.200076534,52.8067626 L0.200076534,65.0598159 Z M92.7896505,65.7602055 L92.7896505,54.5564816 L70.3024592,76.4367544 C78.0308563,72.9348062 85.0587336,69.4353684 92.7896505,65.7602055 L92.7896505,65.7602055 Z M0.0262064982,75.9120898 C7.22795379,77.4860837 15.1352606,79.4115276 21.6364881,80.8123069 L0.0262064982,66.6338098 L0.0262064982,75.9120898 Z M92.7896505,76.4367544 L92.7896505,67.8588641 C86.1145531,72.2369269 79.0866758,76.6099691 72.9357083,80.9855216 L92.7896505,76.4367544 Z M0.0262064982,86.5886387 L21.1073184,86.5886387 L0.0262064982,77.6618087 L0.0262064982,86.5886387 Z M92.7896505,86.5886387 L92.7896505,78.3621984 C85.9381632,81.3369716 79.9661054,83.7870801 73.4623581,86.5886387 L92.7896505,86.5886387 Z M85.5879032,25.3283934 C85.9381632,12.8996151 67.3139105,12.7264005 67.6666903,25.3283934 C67.4903004,36.8785466 86.1145531,37.4057216 85.5879032,25.3283934 L85.5879032,25.3283934 Z M25.6758166,18.8516719 C26.2049863,6.24967907 6.70130397,6.77434371 7.40434368,18.8516719 C6.70130397,31.4536648 26.9055061,31.6293898 25.6758166,18.8516719 L25.6758166,18.8516719 Z M47.4624881,21.3017805 C54.8406253,21.4775055 57.6527841,16.2258384 57.8266542,11.1498962 C58.1794339,3.45063086 53.2606758,0.297622286 47.4624881,0.297622286 C41.6643004,0.297622286 37.0958022,3.6238455 37.2721921,11.1498962 C37.4460621,15.3497237 39.2049213,21.1260555 47.4624881,21.3017805 L47.4624881,21.3017805 Z M58.353304,26.3777226 C57.3000043,25.501608 56.0703148,24.6280037 54.8406253,24.2790641 L52.7315061,65.4087555 L62.9218022,37.0542716 C63.9776217,32.6787191 61.5157227,29.0035562 58.353304,26.3777226 L58.353304,26.3777226 Z" id="Fill-1" fill="#FEFEFE" mask="url(#mask-3)"></path>
                </g>
                <path d="M162.651387,48.6081903 L162.651387,48.6081903 L169.084578,67.1521985 L156.560896,67.1521985 L162.651387,48.6081903 Z M171.113062,73.5636507 L175.51273,86.3790239 L183.639264,86.3790239 L168.066557,41.5289832 L158.251719,41.5289832 L145.050196,79.6286735 L132.186333,63.4469114 L149.452383,41.5289832 L140.312867,41.5289832 L124.402499,62.7716253 L124.402499,41.5289832 L116.616145,41.5289832 L116.616145,86.3790239 L124.402499,86.3790239 L124.402499,64.4610957 L140.988188,86.3790239 L142.681531,86.3790239 L150.127705,86.3790239 L154.527373,73.5636507 L171.113062,73.5636507 Z M272.660723,60.4093793 L272.660723,47.9329043 L279.429055,47.9329043 C285.184405,47.9329043 287.553069,50.300171 287.553069,54.3443564 C287.553069,58.7249296 285.184405,60.7482775 279.429055,60.7482775 L272.660723,60.7482775 L272.660723,60.4093793 Z M272.660723,67.4910967 L276.72021,67.4910967 C280.106896,72.8883646 287.89073,86.3790239 287.89073,86.3790239 L297.032766,86.3790239 L284.844225,66.8208314 C287.553069,66.1455453 289.584073,65.131361 290.937235,63.7832992 C293.308419,61.7624617 295.339423,58.3885417 295.339423,54.3443564 C295.339423,49.9612728 293.64608,46.926251 290.937235,44.9029032 C288.23091,42.5406571 284.506564,41.5289832 278.075892,41.5289832 L264.874369,41.5289832 L264.874369,60.4093792 L264.874369,79.9675717 L240.842506,79.9675717 L240.842506,67.1521985 L254.721871,67.1521985 L254.721871,60.7482775 L240.842506,60.7482775 L240.842506,47.9329042 L258.106037,47.9329042 L258.106037,41.5289832 L233.396333,41.5289832 L233.396333,86.3790239 L272.660723,86.3790239 L272.660723,67.4910967 Z M228.316304,73.5636507 C228.316304,67.1521985 224.256817,63.1080132 216.470463,60.070481 C210.377452,58.0496435 207.330947,56.3651939 207.330947,52.6523757 C207.330947,49.9612728 210.039791,46.926251 215.792622,46.926251 C219.516968,46.926251 223.581495,48.2718025 225.272318,49.2859868 L225.272318,42.8745346 C223.581495,41.865371 219.516968,40.8511868 215.792622,40.8511868 C205.977784,40.8511868 199.547113,46.2484546 199.547113,53.3301721 C199.547113,60.070481 204.624622,63.7832993 212.070795,66.4844435 C217.826145,68.505281 220.53499,70.5261185 220.53499,74.2389368 C220.53499,77.9467343 217.148304,80.6453682 211.733134,80.6453682 C207.671127,80.6453682 202.253438,79.2922857 199.547113,77.2689378 L199.547113,84.3581864 C201.918297,85.7037378 206.655625,87.0492893 211.392954,87.0492893 C222.903654,87.0492893 228.316304,80.6453682 228.316304,73.5636507 L228.316304,73.5636507 Z M186.007929,86.3790239 L193.791762,86.3790239 L193.791762,41.5264728 L186.007929,41.5264728 L186.007929,86.3790239 Z" id="Fill-4" fill="#FEFEFE"></path>
                <path d="M490.052949,67.1527006 L496.14596,48.2723045 L502.574111,67.1527006 L490.052949,67.1527006 Z M491.743772,41.190587 L476.173584,86.3719949 L483.962458,86.3719949 L488.024465,73.2252545 L504.607635,73.2252545 L509.007303,86.3719949 L517.133837,86.3719949 L501.558609,41.190587 L491.743772,41.190587 Z M548.952053,75.9238885 L531.008162,41.190587 L520.515483,41.190587 L520.515483,86.3719949 L527.964176,86.3719949 L527.964176,52.3139795 L545.903028,86.3719949 L556.395707,86.3719949 L556.395707,41.190587 L548.952053,41.190587 L548.952053,75.9238885 Z M697.205238,79.6291756 L678.588544,79.6291756 L678.588544,67.1527006 L692.130248,67.1527006 L692.130248,60.4098813 L678.588544,60.4098813 L678.588544,47.9334063 L695.514414,47.9334063 L695.514414,41.190587 L670.80471,41.190587 L670.80471,86.3719949 L697.205238,86.3719949 L697.205238,79.6291756 Z M625.78749,41.190587 L625.78749,41.190587 L624.431808,41.190587 L624.431808,76.2552556 L606.490436,41.190587 L595.997757,41.190587 L595.997757,79.6291756 L572.303555,79.6291756 L572.303555,67.1527006 L586.18292,67.1527006 L586.18292,60.4098813 L572.303555,60.4098813 L572.303555,47.9334063 L589.229425,47.9334063 L589.229425,41.190587 L564.519721,41.190587 L564.519721,86.3719949 L602.768609,86.3719949 L603.446451,86.3719949 L603.446451,51.9775917 L621.385303,86.3719949 L631.880501,86.3719949 L631.880501,47.9334063 L645.754826,47.9334063 L645.754826,86.3719949 L653.54118,86.3719949 L653.54118,47.9334063 L667.080364,47.9334063 L666.742703,41.190587 L625.78749,41.190587 Z M399.675808,60.7487795 L399.675808,47.9334063 L406.106479,47.9334063 C412.19949,47.9334063 414.568155,50.293142 414.568155,54.0059602 C414.568155,58.3890438 412.19949,60.7487795 406.106479,60.7487795 L399.675808,60.7487795 Z M417.95736,63.7787806 C420.326025,61.4165345 422.354508,58.3890438 422.354508,54.0059602 C422.354508,49.9542438 420.326025,46.5878549 417.95736,44.5594863 C415.245996,42.1972402 411.524169,41.190587 404.753317,41.190587 L391.891974,41.190587 L391.891974,60.4098813 L391.891974,79.6291756 L367.857591,79.6291756 L367.857591,67.1527006 L381.736956,67.1527006 L381.736956,60.4098813 L367.857591,60.4098813 L367.857591,47.9334063 L384.783461,47.9334063 L384.783461,41.190587 L360.073757,41.190587 L360.073757,86.3719949 L399.675808,86.3719949 L399.675808,67.1527006 L403.400155,67.1527006 C407.121981,72.8888667 414.908335,86.3719949 414.908335,86.3719949 L424.047851,86.3719949 L411.864349,66.4749042 C414.568155,66.1460474 416.261497,65.1293527 417.95736,63.7787806 L417.95736,63.7787806 Z M339.08588,61.0851674 L332.657729,61.0851674 L332.657729,47.9334063 L339.08588,47.9334063 C345.178891,47.9334063 347.550075,50.6295299 347.550075,54.3373274 C347.550075,58.3890438 344.84375,61.0851674 339.08588,61.0851674 L339.08588,61.0851674 Z M350.934241,44.5594863 C348.225396,42.1972402 344.50357,41.190587 338.072898,41.190587 L324.871375,41.190587 L324.871375,86.3719949 L332.657729,86.3719949 L332.657729,67.830497 L338.072898,67.830497 C344.50357,67.830497 348.225396,66.8138024 350.934241,64.4540667 C353.302905,62.094331 355.333909,58.720411 355.333909,54.3373274 C355.333909,50.293142 353.643086,46.9167117 350.934241,44.5594863 L350.934241,44.5594863 Z M450.788559,73.8955199 L443.002205,41.190587 L429.12536,41.190587 L429.12536,86.3719949 L436.909194,86.3719949 L436.909194,47.9334063 L446.726552,86.3719949 L454.848046,86.3719949 L464.665404,47.9334063 L464.665404,86.3719949 L472.114097,86.3719949 L472.114097,41.190587 L458.912573,41.190587 L450.788559,73.8955199 Z" id="Fill-6" fill="#FEFEFE"></path>
            </g>
        </g>
    </g>
</svg>