<?xml version="1.0" encoding="UTF-8"?>
<svg width="648px" height="100px" viewBox="0 0 648 100" version="1.1" xmlns="http://www.w3.org/2000/svg" xmlns:xlink="http://www.w3.org/1999/xlink">
    <!-- Generator: Sketch 42 (36781) - http://www.bohemiancoding.com/sketch -->
    <title>typetreatment_final-02</title>
    <desc>Created with Sketch.</desc>
    <defs>
        <filter x="-50%" y="-50%" width="200%" height="200%" filterUnits="objectBoundingBox" id="filter-1">
            <feOffset dx="0" dy="0" in="SourceAlpha" result="shadowOffsetOuter1"></feOffset>
            <feGaussianBlur stdDeviation="5" in="shadowOffsetOuter1" result="shadowBlurOuter1"></feGaussianBlur>
            <feColorMatrix values="0 0 0 0 0   0 0 0 0 0   0 0 0 0 0  0 0 0 0.82605865 0" type="matrix" in="shadowBlurOuter1" result="shadowMatrixOuter1"></feColorMatrix>
            <feMerge>
                <feMergeNode in="shadowMatrixOuter1"></feMergeNode>
                <feMergeNode in="SourceGraphic"></feMergeNode>
            </feMerge>
        </filter>
    </defs>
    <g id="Main" stroke="none" stroke-width="1" fill="none" fill-rule="evenodd">
        <g id="Client-Page---Organ-Donor" transform="translate(-183.000000, -416.000000)" fill-rule="nonzero" fill="#FFFFFF">
            <g id="typetreatment_final-02" filter="url(#filter-1)" transform="translate(193.000000, 426.000000)">
                <g id="Layer_1">
                    <path d="M20.8354665,68.1336419 C6.46145735,68.1336419 0.0278935901,60.9335211 0.0278935901,42.4279477 C0.0278935901,24.0912877 6.54501013,16.8059759 20.8354665,16.8059759 C35.2915626,16.8059759 41.3909153,24.0912877 41.3909153,42.4279477 C41.3909153,60.9335211 35.2915626,68.1336419 20.8354665,68.1336419 Z M20.8354665,63.6963581 C31.864433,63.6963581 36.1270904,57.8357948 36.1270904,42.4294165 C36.1270904,27.1052918 31.864433,21.3284507 20.8354665,21.3284507 C9.72148146,21.3284507 5.29171849,27.1067606 5.29171849,42.4294165 C5.29171849,57.9180483 9.72148146,63.6963581 20.8354665,63.6963581 Z M54.0865398,67.0452515 L54.0865398,17.8943662 L58.1806258,17.558008 L58.3477314,23.0851509 L58.5148369,29.86666 L58.6819425,29.86666 C61.5227368,22.1642052 67.2893442,16.9734205 74.7255413,16.9734205 C76.3965968,16.9734205 77.9840996,17.1408652 79.4044968,17.558008 L78.9867329,22.8339839 C77.5663357,22.3316499 76.0623857,22.1642052 74.4734172,22.1642052 C66.1166737,22.1642052 59.0982405,29.86666 59.0982405,41.8404225 L59.0982405,67.0437827 L54.0865398,67.0437827 L54.0865398,67.0452515 Z M98.1936106,44.6047284 C94.8514995,45.3596982 93.0954254,47.0326761 93.0954254,49.1272032 C93.0954254,51.0528169 94.5993753,52.6435412 98.6934614,53.0621529 L110.058105,54.2357344 C122.174723,55.4901006 125.768958,59.1753521 125.768958,65.707163 C125.768958,74.4157545 120.754326,79.9414286 105.796913,79.9414286 C92.844767,79.9414286 87.4123708,74.7506439 87.4123708,66.8778068 C87.4123708,63.1103018 89.3340846,59.4265191 92.844767,56.7474044 C90.3381838,55.6590141 88.3329171,53.4807646 88.3329171,50.1318712 C88.3329171,47.1178672 90.5888421,44.4387525 94.6829281,43.014004 C91.1737115,41.0883903 88.6671282,37.4046076 88.6671282,31.2928773 C88.6671282,21.9982294 93.3460837,16.8074447 105.297062,16.8074447 C109.558254,16.8074447 114.070104,17.644668 117.330128,20.2400604 L125.269108,16.64 L126.438846,19.2368612 L120.08737,23.5067002 C121.173556,25.5160362 121.841978,28.0277062 121.841978,31.2091549 C121.841978,40.5038028 117.664339,45.5286117 105.297062,45.5286117 C102.957585,45.5271429 100.451001,45.2759759 98.1936106,44.6047284 Z M97.2759959,57.6668813 C93.7653134,59.9273843 91.9286182,63.2762777 91.9286182,66.2917505 C91.9286182,72.1523139 95.9391514,75.6701207 105.632739,75.6701207 C117.83291,75.6701207 121.007916,71.9026157 121.007916,66.3754728 C121.007916,62.1056338 118.835544,59.7599396 109.309061,58.9241851 L97.2759959,57.6668813 Z M93.5982079,31.3751308 C93.5982079,39.6651107 98.6113744,41.507002 105.21351,41.507002 C114.238675,41.507002 116.995917,37.9891952 116.995917,31.3751308 C116.995917,23.7549296 113.401682,21.0758149 105.297062,21.0758149 C96.7732134,21.0758149 93.5982079,24.5084306 93.5982079,31.3751308 Z M164.871658,60.0962978 L164.620999,60.0125755 C161.94731,64.6995573 156.09715,67.7987525 149.245823,67.7987525 C140.30421,67.7987525 134.121304,63.3614688 134.121304,52.3086519 C134.121304,42.9302817 139.887912,37.5720523 151.920977,37.5720523 C156.349274,37.5720523 160.86259,38.492998 164.204701,39.748833 L164.204701,33.6356338 C164.204701,24.2572636 160.277721,21.2432596 151.586766,21.2432596 C146.488581,21.2432596 141.893178,22.1642052 137.631987,24.3409859 L137.047117,19.9037022 C141.726073,17.7269215 146.740705,16.6370624 152.422294,16.6370624 C164.45536,16.6370624 169.302886,21.5766801 169.302886,34.3891348 L169.302886,67.0437827 L165.457993,67.0437827 L164.871658,60.0962978 Z M164.203235,43.767505 C162.949944,42.8465594 158.605199,41.4218109 152.671486,41.4218109 C143.145004,41.4218109 138.967365,45.3582294 138.967365,52.2234608 C138.967365,60.5956942 143.980532,63.4437223 150.582667,63.4437223 C157.768206,63.4437223 164.203235,58.4189135 164.203235,53.6467404 L164.203235,43.767505 L164.203235,43.767505 Z M215.671746,67.0452515 L215.671746,33.7208249 C215.671746,25.2634004 210.99279,21.66334 202.636047,21.66334 C197.78852,21.66334 191.939825,24.0075654 189.182584,28.3625956 L189.182584,67.0467203 L184.169417,67.0467203 L184.169417,17.7269215 L187.762187,17.3920322 L188.681267,23.3363179 L188.931925,23.3363179 C192.274037,19.2339235 197.957091,16.8059759 203.889338,16.8059759 C214.334901,16.8059759 220.684912,22.2479276 220.684912,33.6356338 L220.684912,67.0452515 L215.671746,67.0452515 Z M267.892231,67.0452515 L267.056703,61.2669416 L266.806045,61.1832193 C263.714592,65.7042254 258.449301,68.0499195 251.514421,68.0499195 C237.8103,68.0499195 232.461456,60.0111066 232.461456,42.3427565 C232.461456,25.3456539 238.143045,16.804507 251.596508,16.804507 C257.612307,16.804507 263.128257,18.9812877 266.638939,23.2525956 L266.806045,23.1674044 L266.638939,16.4681489 L266.638939,0.478651911 L271.735658,0.0600402414 L271.735658,67.0452515 L267.892231,67.0452515 L267.892231,67.0452515 Z M266.638939,28.4448491 C264.215908,24.3424547 259.117723,21.66334 252.851265,21.66334 C241.820833,21.66334 237.643194,27.6913481 237.643194,42.51167 C237.643194,57.7506036 241.488088,63.6963581 252.767712,63.6963581 C261.040903,63.6963581 265.051436,59.5939638 266.638939,56.4962374 L266.638939,28.4448491 Z M304.560173,68.1336419 C290.187629,68.1336419 283.754066,60.9335211 283.754066,42.4279477 C283.754066,24.0912877 290.271182,16.8059759 304.560173,16.8059759 C319.016269,16.8059759 325.117087,24.0912877 325.117087,42.4279477 C325.117087,60.9335211 319.016269,68.1336419 304.560173,68.1336419 Z M304.560173,63.6963581 C315.590605,63.6963581 319.853262,57.8357948 319.853262,42.4294165 C319.853262,27.1052918 315.592071,21.3284507 304.560173,21.3284507 C293.446188,21.3284507 289.01789,27.1067606 289.01789,42.4294165 C289.01789,57.9180483 293.446188,63.6963581 304.560173,63.6963581 Z M366.782072,67.0452515 L366.782072,33.7208249 C366.782072,25.2634004 362.103116,21.66334 353.746373,21.66334 C348.900312,21.66334 343.050152,24.0075654 340.29291,28.3625956 L340.29291,67.0467203 L335.279743,67.0467203 L335.279743,17.7269215 L338.873979,17.3920322 L339.793059,23.3363179 L340.043717,23.3363179 C343.385828,19.2339235 349.068883,16.8059759 355.00113,16.8059759 C365.446693,16.8059759 371.796704,22.2479276 371.796704,33.6356338 L371.796704,67.0452515 L366.782072,67.0452515 Z M403.533566,68.1336419 C389.161023,68.1336419 382.727459,60.9335211 382.727459,42.4279477 C382.727459,24.0912877 389.244576,16.8059759 403.533566,16.8059759 C417.989663,16.8059759 424.090481,24.0912877 424.090481,42.4279477 C424.090481,60.9335211 417.989663,68.1336419 403.533566,68.1336419 Z M403.533566,63.6963581 C414.563999,63.6963581 418.826656,57.8357948 418.826656,42.4294165 C418.826656,27.1052918 414.565465,21.3284507 403.533566,21.3284507 C392.419581,21.3284507 387.991284,27.1067606 387.991284,42.4294165 C387.991284,57.9180483 392.421047,63.6963581 403.533566,63.6963581 Z M436.786106,67.0452515 L436.786106,17.8943662 L440.880192,17.558008 L441.047297,23.0851509 L441.214403,29.86666 L441.381508,29.86666 C444.222303,22.1642052 449.98891,16.9734205 457.425107,16.9734205 C459.096163,16.9734205 460.683665,17.1408652 462.104063,17.558008 L461.686299,22.8339839 C460.265901,22.3316499 458.761951,22.1642052 457.172983,22.1642052 C448.816239,22.1642052 441.797806,29.86666 441.797806,41.8404225 L441.797806,67.0437827 L436.786106,67.0437827 L436.786106,67.0452515 Z M473.175538,67.8824748 C470.501849,67.8824748 469.165005,66.7940845 469.165005,63.9460563 C469.165005,61.4343863 470.501849,60.094829 473.175538,60.094829 C475.765674,60.094829 477.018966,61.4343863 477.018966,63.9460563 C477.018966,66.4577264 475.765674,67.8824748 473.175538,67.8824748 Z M500.422538,44.6047284 C497.080427,45.3596982 495.324353,47.0326761 495.324353,49.1272032 C495.324353,51.0528169 496.828303,52.6435412 500.922389,53.0621529 L512.287033,54.2357344 C524.403651,55.4901006 527.997886,59.1753521 527.997886,65.707163 C527.997886,74.4157545 522.983254,79.9414286 508.025841,79.9414286 C495.073695,79.9414286 489.641299,74.7506439 489.641299,66.8778068 C489.641299,63.1103018 491.563012,59.4265191 495.073695,56.7474044 C492.567112,55.6590141 490.561845,53.4807646 490.561845,50.1318712 C490.561845,47.1178672 492.81777,44.4387525 496.911856,43.014004 C493.402639,41.0883903 490.896056,37.4046076 490.896056,31.2928773 C490.896056,21.9982294 495.575011,16.8074447 507.52599,16.8074447 C511.787182,16.8074447 516.299032,17.644668 519.559056,20.2400604 L527.498035,16.64 L528.667774,19.2368612 L522.316297,23.5067002 C523.402483,25.5160362 524.070906,28.0277062 524.070906,31.2091549 C524.070906,40.5038028 519.893267,45.5286117 507.52599,45.5286117 C505.185047,45.5271429 502.678463,45.2759759 500.422538,44.6047284 Z M499.503458,57.6668813 C495.992775,59.9273843 494.15608,63.2762777 494.15608,66.2917505 C494.15608,72.1523139 498.166613,75.6701207 507.860201,75.6701207 C520.060372,75.6701207 523.235378,71.9026157 523.235378,66.3754728 C523.235378,62.1056338 521.063006,59.7599396 511.536523,58.9241851 L499.503458,57.6668813 Z M495.82567,31.3751308 C495.82567,39.6651107 500.838836,41.507002 507.440972,41.507002 C516.466137,41.507002 519.223379,37.9891952 519.223379,31.3751308 C519.223379,23.7549296 515.629144,21.0758149 507.524524,21.0758149 C499.000675,21.0758149 495.82567,24.5084306 495.82567,31.3751308 Z M556.402898,68.1336419 C542.030355,68.1336419 535.596791,60.9335211 535.596791,42.4279477 C535.596791,24.0912877 542.113908,16.8059759 556.402898,16.8059759 C570.858994,16.8059759 576.959813,24.0912877 576.959813,42.4279477 C576.959813,60.9335211 570.858994,68.1336419 556.402898,68.1336419 Z M556.402898,63.6963581 C567.433331,63.6963581 571.695988,57.8357948 571.695988,42.4294165 C571.695988,27.1052918 567.434797,21.3284507 556.402898,21.3284507 C545.288913,21.3284507 540.860616,27.1067606 540.860616,42.4294165 C540.860616,57.9180483 545.290379,63.6963581 556.402898,63.6963581 Z M628.753739,17.6431992 L609.032352,67.0452515 L603.016552,67.0452515 L583.211613,17.6431992 L588.97822,17.6431992 L603.602888,56.0761569 L605.942365,62.4390543 L606.193024,62.4390543 L608.448949,56.0761569 L623.07215,17.6431992 L628.753739,17.6431992 L628.753739,17.6431992 Z" id="Shape"></path>
                </g>
            </g>
        </g>
    </g>
</svg>