<?xml version="1.0" encoding="UTF-8"?>
<svg width="343px" height="91px" viewBox="0 0 343 91" version="1.1" xmlns="http://www.w3.org/2000/svg" xmlns:xlink="http://www.w3.org/1999/xlink">
    <!-- Generator: Sketch 42 (36781) - http://www.bohemiancoding.com/sketch -->
    <title>ChameleonRoam_Icon_LY3-03</title>
    <desc>Created with Sketch.</desc>
    <defs>
        <filter x="-50%" y="-50%" width="200%" height="200%" filterUnits="objectBoundingBox" id="filter-1">
            <feOffset dx="0" dy="-1" in="SourceAlpha" result="shadowOffsetOuter1"></feOffset>
            <feGaussianBlur stdDeviation="5" in="shadowOffsetOuter1" result="shadowBlurOuter1"></feGaussianBlur>
            <feColorMatrix values="0 0 0 0 0   0 0 0 0 0   0 0 0 0 0  0 0 0 0.5 0" type="matrix" in="shadowBlurOuter1" result="shadowMatrixOuter1"></feColorMatrix>
            <feMerge>
                <feMergeNode in="shadowMatrixOuter1"></feMergeNode>
                <feMergeNode in="SourceGraphic"></feMergeNode>
            </feMerge>
        </filter>
    </defs>
    <g id="Main" stroke="none" stroke-width="1" fill="none" fill-rule="evenodd">
        <g id="Client-Page---Roam" transform="translate(-334.000000, -413.000000)">
            <g id="ChameleonRoam_Icon_LY3-03" filter="url(#filter-1)" transform="translate(343.000000, 424.000000)">
                <g id="Layer_1">
                    <path d="M307.462721,1.301075 L289.761344,29.8484 L272.060852,1.301075 L256.091902,1.301075 L256.091902,61.5561125 L230.31177,0.818275 L216.652426,0.818275 L199.608787,40.9732125 C199.931016,39.0473375 200.10718,37.07265 200.10718,35.05625 L200.10718,34.8636625 C200.10718,15.6705875 185.196098,0.143775 164.417607,0.143775 C149.084262,0.143775 136.850164,8.7090375 131.486459,20.907725 C130.995148,15.7256125 129.056459,11.3697625 125.843902,8.1481375 C121.418557,3.711525 114.780984,1.301075 106.21977,1.301075 L75.4362295,1.301075 L75.4362295,68.8123125 L90.2508197,68.8123125 L90.2508197,47.2087875 L101.69882,47.2087875 L101.890918,47.2087875 L116.320426,68.8123125 L133.635836,68.8123125 L117.186197,44.7016 C122.025836,42.9026375 126.002361,39.9304 128.547443,35.7201 C128.789115,54.6939625 143.616984,69.9705 164.226393,69.9705 C176.57823,69.9705 186.923213,64.4156375 193.283705,55.878775 L187.79341,68.8132 L202.89659,68.8132 L209.053475,53.6715625 L237.52741,53.6715625 L243.684295,68.8132 L256.092787,68.8132 L259.172557,68.8132 L270.618787,68.8132 L270.618787,25.0266125 L289.378033,53.5739375 L289.76223,53.5739375 L308.713574,24.7372875 L308.713574,68.8123125 L323.432557,68.8123125 L323.432557,1.301075 L307.462721,1.301075 Z M116.608131,24.5438125 C116.608131,30.233575 112.471377,34.092425 105.256623,34.092425 L90.2490492,34.092425 L90.2490492,14.7067625 L104.968033,14.7067625 C112.182787,14.7067625 116.608131,17.9851875 116.608131,24.351225 L116.608131,24.5438125 Z M184.618918,35.249725 C184.618918,46.822725 176.34541,56.2746 164.417607,56.2746 C152.488918,56.2746 144.023311,46.6301375 144.023311,35.05625 L144.023311,34.8636625 C144.023311,23.289775 152.295934,13.8387875 164.225508,13.8387875 C176.154197,13.8387875 184.619803,23.4841375 184.619803,35.0571375 L184.619803,35.249725 L184.618918,35.249725 Z M214.34282,40.553425 L223.289115,18.660575 L232.23541,40.553425 L214.34282,40.553425 L214.34282,40.553425 Z" id="XMLID_40_" fill="#FFFFFF" fill-rule="nonzero"></path>
                    <path d="M68.4596066,1.775 L45.0218361,1.775 L35.2292459,1.775 C16.243377,1.775 0.852491803,17.034675 0.852491803,36.0688875 C0.852491803,55.1031 16.5629508,70.447975 35.5488197,70.447975 C38.7197705,70.447975 42.3660984,69.9234625 45.0218361,69.1176125 C59.1857705,65.0990125 69.8087213,51.753675 69.8087213,35.8984875 L69.8087213,2.582625 C69.8087213,1.9480625 69.0925574,1.775 68.4596066,1.775 Z M45.0218361,60.064225 C42.3660984,61.1478625 38.7737705,61.746925 35.5488197,61.746925 C21.3096393,61.746925 9.60668852,50.173925 9.60668852,35.8984875 C9.60668852,21.62305 21.3901967,10.05005 35.6284918,10.05005 C38.8525574,10.05005 42.3660984,10.648225 45.0218361,11.73275 C54.759541,15.4354 61.6511803,24.855325 61.6511803,35.8984875 C61.6511803,46.9407625 54.759541,56.361575 45.0218361,60.064225 Z" id="Shape" fill="#FFFFFF" fill-rule="nonzero"></path>
                    <path d="M35.1725902,14.230175 C46.8365902,14.230175 56.2927869,23.9704875 56.2927869,35.9854625 C56.2927869,48.0004375 46.8374754,57.74075 35.1725902,57.74075 C23.5085902,57.74075 14.0523934,48.0004375 14.0523934,35.9854625 C14.0523934,23.9704875 23.5085902,14.230175 35.1725902,14.230175 L35.1725902,14.230175 Z M35.1725902,8.905175 C20.5979016,8.905175 8.74091803,21.053275 8.74091803,35.9854625 C8.74091803,50.91765 20.5979016,63.06575 35.1725902,63.06575 C49.7472787,63.06575 61.6042623,50.91765 61.6042623,35.9854625 C61.6042623,21.053275 49.7463934,8.905175 35.1725902,8.905175 L35.1725902,8.905175 Z" id="Shape" fill="#FFFFFF" fill-rule="nonzero"></path>
                    <rect id="Rectangle-path" stroke="#FFFFFF" stroke-width="6" x="60.0710164" y="18.6375" width="2.6557377" height="21.3"></rect>
                    <polygon id="Shape" stroke="#FFFFFF" stroke-linecap="round" stroke-linejoin="round" fill="#FFFFFF" fill-rule="nonzero" points="41.6039016 35.05625 30.4152787 40.825 30.4152787 29.2875"></polygon>
                </g>
            </g>
        </g>
    </g>
</svg>